<svg width="400" height="200" viewBox="0 0 400 200" xmlns="http://www.w3.org/2000/svg">
  <line x1="50" y1="150" x2="50" y2="170" stroke="black" stroke-width="2"></line>
  <line x1="40" y1="170" x2="60" y2="170" stroke="black" stroke-width="2"></line>
  <line x1="45" y1="175" x2="55" y2="175" stroke="black" stroke-width="2"></line>
  <line x1="48" y1="180" x2="52" y2="180" stroke="black" stroke-width="2"></line>
  <text x="60" y="170" font-family="Arial" font-size="12" fill="black">0V (参考节点)</text>
  <rect x="50" y="100" width="20" height="40" stroke="black" stroke-width="2" fill="none"></rect>
  <line x1="60" y1="100" x2="60" y2="140" stroke="black" stroke-width="2"></line>
  <line x1="50" y1="120" x2="70" y2="120" stroke="black" stroke-width="2"></line>
  <text x="75" y="125" font-family="Arial" font-size="12" fill="black">V1=10V</text>
  <rect x="120" y="50" width="40" height="20" stroke="black" stroke-width="2" fill="none"></rect>
  <line x1="120" y1="60" x2="160" y2="60" stroke="black" stroke-width="2"></line>
  <text x="125" y="45" font-family="Arial" font-size="12" fill="black">R1=2Ω</text>
  <rect x="120" y="120" width="40" height="20" stroke="black" stroke-width="2" fill="none"></rect>
  <line x1="120" y1="130" x2="160" y2="130" stroke="black" stroke-width="2"></line>
  <text x="125" y="115" font-family="Arial" font-size="12" fill="black">R2=4Ω</text>
  <rect x="250" y="80" width="40" height="20" stroke="black" stroke-width="2" fill="none"></rect>
  <line x1="250" y1="90" x2="290" y2="90" stroke="black" stroke-width="2"></line>
  <text x="255" y="75" font-family="Arial" font-size="12" fill="black">R3=5Ω</text>
  <circle cx="350" cy="90" r="15" stroke="black" stroke-width="2" fill="none"></circle>
  <line x1="350" y1="75" x2="350" y2="105" stroke="black" stroke-width="2"></line>
  <polygon points="350,80 345,85 355,85" fill="black"></polygon>
  <text x="360" y="95" font-family="Arial" font-size="12" fill="black">Is=2A</text>
  <line x1="50" y1="150" x2="100" y2="150" stroke="black" stroke-width="2"></line>
  <line x1="100" y1="150" x2="100" y2="100" stroke="black" stroke-width="2"></line>
  <line x1="100" y1="100" x2="120" y2="60" stroke="black" stroke-width="2"></line>
  <line x1="100" y1="100" x2="120" y2="130" stroke="black" stroke-width="2"></line>
  <line x1="100" y1="100" x2="250" y2="90" stroke="black" stroke-width="2"></line>
  <line x1="290" y1="90" x2="335" y2="90" stroke="black" stroke-width="2"></line>
  <line x1="350" y1="105" x2="350" y2="150" stroke="black" stroke-width="2"></line>
  <line x1="350" y1="150" x2="100" y2="150" stroke="black" stroke-width="2"></line>
  <circle cx="100" cy="100" r="5" fill="red"></circle>
  <text x="105" y="95" font-family="Arial" font-size="12" fill="red">VA</text>
</svg>
